#!OML:ASF Y:\EmotionMaleHayes\Project 1\Capture day 1\Session 1\Male1.ASF
:FULLY-SPECIFIED
:DEGREES
74
root -30.0571 17.0531 0.848365 45.9156 86.4048 45.7439
lowerback 4.03985 1.37312 -5.47115
upperback -0.254187 1.56353 -0.418256
thorax -2.66504 0.856593 2.53574
lowerneck -20.3582 3.4946 4.48965
upperneck 25.5896 4.27436 -1.79167
head 11.9233 2.22805 -0.710535
rclavicle 5.84241e-015 -1.92821e-014
rhumerus -34.8308 7.41327 -91.7443
rradius 30.1378
rwrist 5.44753
rhand -10.152 -29.9044
rfingers 7.12502
rthumb 15.8373 -59.2767
lclavicle 5.84241e-015 -1.92821e-014
lhumerus -31.8167 -7.24207 92.1606
lradius 21.6565
lwrist -21.1008
lhand -13.456 -27.4722
lfingers 7.12502
lthumb 12.6536 2.12454
rfemur 8.86082 -2.77526 10.5089
rtibia 2.28884
rfoot -14.7744 -3.3827
rtoes 7.01231
lfemur 11.7106 -2.93865 -17.9
ltibia -3.17177
lfoot -10.5387 11.9855
ltoes -18.7684
75
root -30.0576 17.054 0.848019 45.8561 86.4447 45.6869
lowerback 4.05344 1.37872 -5.43875
upperback -0.255077 1.57164 -0.413787
thorax -2.6735 0.860391 2.52136
lowerneck -20.4703 3.49938 4.60233
upperneck 25.6845 4.28417 -1.93742
head 11.9896 2.22387 -0.780041
rclavicle -4.91681e-015 -2.38542e-015
rhumerus -34.8127 7.46195 -91.7514
rradius 30.1153
rwrist 5.4006
rhand -10.2534 -29.9854
rfingers 7.12502
rthumb 15.7397 -59.3654
lclavicle -4.91681e-015 -2.38542e-015
lhumerus -31.8626 -7.41435 92.2127
lradius 21.7368
lwrist -20.9791
lhand -14.0755 -27.342
lfingers 7.12502
lthumb 12.0563 2.29073
rfemur 8.87751 -2.74555 10.5673
rtibia 2.2676
rfoot -14.7866 -3.46451
rtoes 6.32286
lfemur 11.7055 -2.93449 -17.8429
ltibia -3.18977
lfoot -10.5113 11.9231
ltoes -18.632
76
root -30.0562 17.0534 0.845568 45.5485 86.428 45.3661
lowerback 4.01409 1.38093 -5.43214
upperback -0.261168 1.57746 -0.39823
thorax -2.65844 0.862973 2.53414
lowerneck -20.3957 3.48991 4.54027
upperneck 25.6254 4.28133 -1.89663
head 11.9489 2.22226 -0.75629
rclavicle 6.46361e-015 -2.36554e-014
rhumerus -34.7966 7.51445 -91.7171
rradius 30.0494
rwrist 5.43332
rhand -10.282 -29.7404
rfingers 7.12502
rthumb 15.7121 -59.1225
lclavicle 6.46361e-015 -2.36554e-014
lhumerus -31.9176 -7.57572 92.2909
lradius 21.7891
lwrist -20.7633
lhand -13.3975 -27.3636
lfingers 7.12502
lthumb 12.71 2.22964
rfemur 8.85142 -2.75787 10.5556
rtibia 2.27655
rfoot -14.8386 -3.48384
rtoes 5.8436
lfemur 11.6106 -2.5261 -17.7097
ltibia -3.03634
lfoot -10.5045 11.502
ltoes -18.3878
77
root -30.0558 17.0535 0.845172 44.9127 86.4654 44.7615
lowerback 4.02977 1.36806 -5.37773
upperback -0.267137 1.56197 -0.37507
thorax -2.67122 0.854934 2.52824
lowerneck -20.3102 3.50191 4.53825
upperneck 25.584 4.30067 -1.88926
head 11.9163 2.23255 -0.751442
rclavicle 8.90183e-015 4.67144e-015
rhumerus -34.8093 7.48781 -91.6924
rradius 30.0109
rwrist 5.47529
rhand -10.2008 -29.5002
rfingers 7.12502
rthumb 15.7902 -58.8762
lclavicle 8.90183e-015 4.67144e-015
lhumerus -31.9971 -7.61648 92.3019
lradius 21.8438
lwrist -20.7174
lhand -14.1653 -27.2312
lfingers 7.12502
lthumb 11.9697 2.40659
rfemur 8.89085 -2.73143 10.6275
rtibia 2.26294
rfoot -14.9243 -3.53136
rtoes 6.06603
lfemur 11.6454 -2.62258 -17.6838
ltibia -3.01992
lfoot -10.5813 11.5744
ltoes -17.7695
78
root -30.0565 17.0544 0.845787 46.3336 86.5443 46.2351
lowerback 4.09818 1.31278 -5.38488
upperback -0.272106 1.48351 -0.37006
thorax -2.70852 0.816991 2.54124
lowerneck -20.2468 3.52662 4.50197
upperneck 25.5236 4.32878 -1.82154
head 11.8787 2.25056 -0.716794
rclavicle -2.65564e-015 1.0138e-014
rhumerus -34.8812 7.62333 -91.752
rradius 30.0854
rwrist 5.35393
rhand -10.1667 -29.5149
rfingers 7.12502
rthumb 15.8231 -58.8882
lclavicle -2.65564e-015 1.0138e-014
lhumerus -32.0214 -7.54281 92.2747
lradius 21.8456
lwrist -20.8441
lhand -13.4585 -27.1991
lfingers 7.12502
lthumb 12.6512 2.39772
rfemur 9.00726 -2.82863 10.6018
rtibia 2.21656
rfoot -14.8872 -3.50332
rtoes 6.59735
lfemur 11.6529 -2.69953 -17.7041
ltibia -2.95528
lfoot -10.6095 11.5371
ltoes -17.833
79
root -30.0568 17.055 0.845679 49.4581 86.446 49.3328
lowerback 4.06986 1.28065 -5.59224
upperback -0.283578 1.4315 -0.424437
thorax -2.7041 0.794164 2.60509
lowerneck -20.2638 3.54992 4.49285
upperneck 25.5007 4.34509 -1.76399
head 11.8722 2.26376 -0.691062
rclavicle 3.1526e-016 6.95746e-016
rhumerus -34.9233 7.76499 -91.8114
rradius 30.1541
rwrist 5.24552
rhand -10.1997 -29.4188
rfingers 7.12502
rthumb 15.7913 -58.7947
lclavicle 3.1526e-016 6.95746e-016
lhumerus -31.9596 -7.6228 92.2918
lradius 21.7773
lwrist -20.8153
lhand -13.6292 -27.0315
lfingers 7.12502
lthumb 12.4866 2.57545
rfemur 8.99894 -2.96758 10.3085
rtibia 2.22427
rfoot -14.7962 -3.37929
rtoes 7.12979
lfemur 11.673 -2.91342 -18.0318
ltibia -3.08495
lfoot -10.5272 11.7076
ltoes -18.0826
80
root -30.0569 17.0557 0.845448 50.0496 86.3341 49.8572
lowerback 3.97639 1.312 -5.70153
upperback -0.297657 1.47337 -0.463136
thorax -2.67168 0.815979 2.62513
lowerneck -20.3177 3.52938 4.53121
upperneck 25.5308 4.30361 -1.77417
head 11.8944 2.2472 -0.707067
rclavicle -1.26725e-015 4.47266e-015
rhumerus -34.9013 7.71223 -91.7929
rradius 30.1466
rwrist 5.26474
rhand -10.1909 -29.3807
rfingers 7.12502
rthumb 15.7998 -58.7559
lclavicle -1.26725e-015 4.47266e-015
lhumerus -31.9169 -7.79356 92.3426
lradius 21.7346
lwrist -20.6648
lhand -13.145 -27.0888
lfingers 7.12502
lthumb 12.9534 2.48907
rfemur 8.8889 -2.96287 10.1759
rtibia 2.26818
rfoot -14.7481 -3.32959
rtoes 7.01479
lfemur 11.7036 -3.12536 -18.2439
ltibia -3.28932
lfoot -10.4522 12.0101
ltoes -18.4122
81
root -30.0585 17.056 0.847064 48.0842 86.4115 47.8837
lowerback 3.98039 1.33149 -5.59762
upperback -0.313839 1.504 -0.409835
thorax -2.69202 0.830612 2.6197
lowerneck -20.2989 3.50564 4.54538
upperneck 25.5369 4.27948 -1.81704
head 11.8935 2.23265 -0.729612
rclavicle 1.19209e-014 -1.11319e-014
rhumerus -34.9783 7.64858 -91.7534
rradius 30.1912
rwrist 5.35147
rhand -10.1739 -29.498
rfingers 7.12502
rthumb 15.8161 -58.8719
lclavicle 1.19209e-014 -1.11319e-014
lhumerus -31.9521 -7.77282 92.3567
lradius 21.7382
lwrist -20.7239
lhand -12.6889 -27.2248
lfingers 7.12502
lthumb 13.3931 2.32474
rfemur 8.86687 -2.76919 10.4316
rtibia 2.2476
rfoot -14.763 -3.47471
rtoes 6.87787
lfemur 11.6059 -2.72435 -17.9076
ltibia -3.12104
lfoot -10.4309 11.6768
ltoes -19.1239
82
root -30.0611 17.0563 0.847845 47.1994 86.5208 47.0326
lowerback 4.06413 1.31602 -5.49227
upperback -0.327265 1.48277 -0.376815
thorax -2.74919 0.820201 2.59436
lowerneck -20.2838 3.50946 4.6045
upperneck 25.5758 4.29934 -1.91975
head 11.9105 2.23479 -0.774491
rclavicle 2.3191e-014 -1.92821e-014
rhumerus -35.0821 7.62102 -91.7606
rradius 30.2547
rwrist 5.43944
rhand -10.2318 -29.5918
rfingers 7.12502
rthumb 15.7604 -58.9702
lclavicle 2.3191e-014 -1.92821e-014
lhumerus -31.9993 -7.80181 92.348
lradius 21.747
lwrist -20.7763
lhand -13.2014 -27.1095
lfingers 7.12502
lthumb 12.899 2.4719
rfemur 8.91848 -2.63778 10.6251
rtibia 2.19691
rfoot -14.8336 -3.64246
rtoes 7.29757
lfemur 11.4602 -2.12448 -17.5328
ltibia -2.81063
lfoot -10.3885 11.0362
ltoes -19.5435
83
root -30.0628 17.0565 0.846293 47.171 86.5807 46.9829
lowerback 4.06617 1.30578 -5.41994
upperback -0.341274 1.47195 -0.373803
thorax -2.76203 0.81426 2.5575
lowerneck -20.2972 3.49591 4.64199
upperneck 25.669 4.29995 -2.01047
head 11.9526 2.22827 -0.813787
rclavicle -2.76901e-015 5.56597e-015
rhumerus -35.0165 7.62721 -91.7552
rradius 30.1953
rwrist 5.41806
rhand -10.232 -29.7956
rfingers 7.12502
rthumb 15.7602 -59.1739
lclavicle -2.76901e-015 5.56597e-015
lhumerus -32.0056 -7.91173 92.3705
lradius 21.7577
lwrist -20.6363
lhand -13.5475 -26.9668
lfingers 7.12502
lthumb 12.5654 2.6353
rfemur 8.88101 -2.73105 10.6373
rtibia 2.22505
rfoot -14.854 -3.63749
rtoes 7.20924
lfemur 11.3642 -1.90871 -17.3911
ltibia -2.7176
lfoot -10.3841 10.7719
ltoes -19.3551
84
root -30.0638 17.0565 0.845949 46.2383 86.6451 46.0015
lowerback 4.01826 1.29636 -5.35238
upperback -0.359496 1.46566 -0.332781
thorax -2.75269 0.81031 2.56328
lowerneck -20.2931 3.5197 4.60364
upperneck 25.6315 4.32111 -1.93162
head 11.9351 2.24373 -0.774705
rclavicle -9.73268e-015 9.74045e-015
rhumerus -34.9421 7.72511 -91.7495
rradius 30.1424
rwrist 5.32823
rhand -10.2191 -30.0743
rfingers 7.12502
rthumb 15.7727 -59.4517
lclavicle -9.73268e-015 9.74045e-015
lhumerus -31.9893 -7.8328 92.3617
lradius 21.7443
lwrist -20.6398
lhand -13.3633 -27.0349
lfingers 7.12502
lthumb 12.743 2.55625
rfemur 8.79874 -2.80316 10.7225
rtibia 2.283
rfoot -14.8357 -3.63075
rtoes 6.68943
lfemur 11.3217 -2.00685 -17.3044
ltibia -2.74853
lfoot -10.4132 10.8424
ltoes -18.641
85
root -30.0634 17.0561 0.845626 46.904 86.5849 46.6833
lowerback 4.02308 1.29149 -5.44507
upperback -0.357633 1.45437 -0.34471
thorax -2.75469 0.806114 2.60353
lowerneck -20.2807 3.53235 4.62503
upperneck 25.6042 4.33339 -1.94027
head 11.9233 2.24987 -0.779828
rclavicle -2.88082e-015 1.77912e-014
rhumerus -34.9419 7.79701 -91.7693
rradius 30.148
rwrist 5.28208
rhand -10.1983 -30.1155
rfingers 7.12502
rthumb 15.7927 -59.4913
lclavicle -2.88082e-015 1.77912e-014
lhumerus -31.964 -7.70474 92.3088
lradius 21.7007
lwrist -20.7655
lhand -14.039 -27.0737
lfingers 7.12502
lthumb 12.0915 2.55692
rfemur 8.81603 -2.85769 10.6184
rtibia 2.29279
rfoot -14.8352 -3.58832
rtoes 6.70575
lfemur 11.4884 -2.52075 -17.5847
ltibia -3.02813
lfoot -10.383 11.3315
ltoes -18.1721
86
root -30.0618 17.056 0.844147 49.2741 86.3632 49.0773
lowerback 4.02348 1.30115 -5.70941
upperback -0.352301 1.45383 -0.420076
thorax -2.75445 0.809626 2.67364
lowerneck -20.2964 3.53664 4.6177
upperneck 25.62 4.33598 -1.92063
head 11.932 2.25285 -0.770527
rclavicle 3.92444e-015 1.2921e-015
rhumerus -34.9324 7.8017 -91.7547
rradius 30.1223
rwrist 5.2548
rhand -10.102 -29.9446
rfingers 7.12502
rthumb 15.8854 -59.3131
lclavicle 3.92444e-015 1.2921e-015
lhumerus -31.9359 -7.63379 92.2811
lradius 21.6463
lwrist -20.8039
lhand -13.3798 -27.1141
lfingers 7.12502
lthumb 12.7271 2.47808
rfemur 8.84762 -2.88576 10.2664
rtibia 2.27872
rfoot -14.8575 -3.47773
rtoes 7.32507
lfemur 11.7214 -3.20235 -18.1888
ltibia -3.39296
lfoot -10.4125 12.0805
ltoes -18.4554
